<svg width="20" height="20" viewBox="0 0 20 20" fill="none" xmlns="http://www.w3.org/2000/svg">
<path d="M9.71924 0C10.6114 0 11.472 0.113897 12.3009 0.341692C13.1298 0.569487 13.9018 0.898523 14.6168 1.3288C15.3318 1.75908 15.9868 2.26529 16.5816 2.84743C17.1763 3.42957 17.6857 4.08448 18.1097 4.81216C18.5336 5.53984 18.8595 6.31497 19.0873 7.13757C19.3151 7.96016 19.4321 8.82071 19.4385 9.71924C19.4385 10.6114 19.3246 11.472 19.0968 12.3009C18.869 13.1298 18.54 13.9018 18.1097 14.6168C17.6794 15.3318 17.1732 15.9868 16.591 16.5816C16.0089 17.1763 15.354 17.6857 14.6263 18.1097C13.8986 18.5336 13.1235 18.8595 12.3009 19.0873C11.4783 19.3151 10.6178 19.4321 9.71924 19.4385C8.82704 19.4385 7.96649 19.3246 7.13757 19.0968C6.30865 18.869 5.53668 18.54 4.82165 18.1097C4.10663 17.6794 3.45172 17.1732 2.85692 16.591C2.26213 16.0089 1.75275 15.354 1.3288 14.6263C0.904851 13.8986 0.578978 13.1235 0.351183 12.3009C0.123389 11.4783 0.00632763 10.6178 0 9.71924C0 8.82704 0.113897 7.96649 0.341692 7.13757C0.569487 6.30865 0.898523 5.53668 1.3288 4.82165C1.75908 4.10663 2.26529 3.45172 2.84743 2.85692C3.42957 2.26213 4.08448 1.75275 4.81216 1.3288C5.53984 0.904851 6.31497 0.578978 7.13757 0.351183C7.96016 0.123389 8.82071 0.00632763 9.71924 0ZM15.4426 6.50164L14.1517 5.2108L7.89688 11.4657L5.28673 8.85552L3.9959 10.1464L7.89688 14.0473L15.4426 6.50164Z" fill="#4F46E9"/>
</svg>
