<svg width="24" height="24" viewBox="0 0 24 24" fill="none" xmlns="http://www.w3.org/2000/svg">
<g clip-path="url(#clip0_149_618)">
<path d="M20.5 5.808L8 15.5M8 8.5L16 14.558M5.5 9.5C4.70435 9.5 3.94129 9.18393 3.37868 8.62132C2.81607 8.05871 2.5 7.29565 2.5 6.5C2.5 5.70435 2.81607 4.94129 3.37868 4.37868C3.94129 3.81607 4.70435 3.5 5.5 3.5C6.29565 3.5 7.05871 3.81607 7.62132 4.37868C8.18393 4.94129 8.5 5.70435 8.5 6.5C8.5 7.29565 8.18393 8.05871 7.62132 8.62132C7.05871 9.18393 6.29565 9.5 5.5 9.5ZM8.5 17.5C8.5 18.2956 8.18393 19.0587 7.62132 19.6213C7.05871 20.1839 6.29565 20.5 5.5 20.5C4.70435 20.5 3.94129 20.1839 3.37868 19.6213C2.81607 19.0587 2.5 18.2956 2.5 17.5C2.5 16.7044 2.81607 15.9413 3.37868 15.3787C3.94129 14.8161 4.70435 14.5 5.5 14.5C6.29565 14.5 7.05871 14.8161 7.62132 15.3787C8.18393 15.9413 8.5 16.7044 8.5 17.5Z" stroke="currentColor" stroke-width="1.4" stroke-linecap="round"/>
<path d="M19.75 17L20.27 18.23L21.5 18.75L20.27 19.27L19.75 20.5L19.23 19.27L18 18.75L19.23 18.23L19.75 17Z" stroke="currentColor" stroke-width="1.4"/>
</g>
<defs>
<clipPath id="clip0_149_618">
<rect width="24" height="24" fill="white"/>
</clipPath>
</defs>
</svg>
