<svg width="24" height="24" viewBox="0 0 24 24" fill="none" xmlns="http://www.w3.org/2000/svg">
<path d="M8.48921 13.387L10.0362 14.427L11.6272 13.619C11.7352 13.5617 11.8565 13.533 11.9912 13.533C12.1259 13.533 12.2469 13.5617 12.3542 13.619L13.9642 14.427L15.5002 13.398L14.4802 11.346C14.4295 11.2433 14.3529 11.16 14.2502 11.096C14.1475 11.032 14.0385 11 13.9232 11H10.0352C9.91987 11 9.81387 11.032 9.71721 11.096C9.62121 11.16 9.54787 11.2433 9.49721 11.346L8.48921 13.387ZM5.22521 20H18.7502L15.9382 14.313L14.4152 15.331C14.2912 15.4177 14.1609 15.4653 14.0242 15.474C13.8875 15.4827 13.7489 15.4517 13.6082 15.381L12.0002 14.567L10.3922 15.362C10.2515 15.432 10.1129 15.462 9.97621 15.452C9.83954 15.442 9.70921 15.3933 9.58521 15.306L8.03021 14.289L5.22521 20ZM4.90821 21C4.60154 21 4.36821 20.8737 4.20821 20.621C4.04821 20.3683 4.03921 20.1077 4.18121 19.839L8.58121 10.894C8.72187 10.6247 8.92287 10.4083 9.18421 10.245C9.44487 10.0817 9.72821 10 10.0342 10H11.5002V3.808C11.5002 3.576 11.5769 3.38333 11.7302 3.23C11.8835 3.07667 12.0762 3 12.3082 3H16.5462C16.6915 3 16.8045 3.06333 16.8852 3.19C16.9652 3.316 16.9702 3.44933 16.9002 3.59L16.5232 4.313C16.4899 4.371 16.4732 4.43333 16.4732 4.5C16.4732 4.56667 16.4899 4.62867 16.5232 4.686L16.9002 5.41C16.9709 5.55067 16.9659 5.684 16.8852 5.81C16.8045 5.936 16.6915 5.99933 16.5462 6H12.5002V10H13.8852C14.1919 10 14.4712 10.0807 14.7232 10.242C14.9759 10.4033 15.1745 10.6187 15.3192 10.888L19.7942 19.838C19.9355 20.1073 19.9262 20.3683 19.7662 20.621C19.6069 20.8737 19.3739 21 19.0672 21H4.90821Z" fill="currentColor"/>
<path d="M10.034 10C9.72805 10 9.44495 10.0819 9.18435 10.2451L8.99978 10.377C8.82624 10.5193 8.68642 10.6915 8.58083 10.8936L4.18142 19.8389L4.13454 19.9395C4.0434 20.1727 4.06783 20.4001 4.20778 20.6211C4.36778 20.8738 4.60131 21 4.90798 21H19.0672L19.1785 20.9941C19.3947 20.9705 19.5696 20.8758 19.7029 20.71L19.7664 20.6211C19.9263 20.3685 19.935 20.1072 19.7937 19.8379L15.3191 10.8877L15.408 10.8438L19.8836 19.793H19.8826C20.0396 20.0929 20.0297 20.3917 19.8504 20.6748C19.6722 20.9571 19.4068 21.0996 19.0672 21.0996H4.90798C4.56824 21.0996 4.30269 20.9571 4.1238 20.6748C3.94424 20.3912 3.93413 20.0917 4.09255 19.792L8.49099 10.8496L8.49196 10.8477C8.64095 10.5624 8.85454 10.3328 9.13063 10.1602C9.40712 9.98691 9.70908 9.9004 10.034 9.90039V10ZM9.58474 15.3057C9.67778 15.3712 9.7746 15.4155 9.87478 15.4375L9.97634 15.4521C10.0787 15.4596 10.1823 15.4447 10.2869 15.4072L10.3924 15.3623L11.9998 14.5674L13.6082 15.3809C13.7135 15.4338 13.8176 15.4642 13.9207 15.4727L14.0242 15.4736C14.1607 15.4649 14.2909 15.4176 14.4148 15.3311L15.9383 14.3135L18.7498 20H5.22536L8.03005 14.2891L9.58474 15.3057ZM5.38552 19.9004H18.5886L15.8982 14.459L14.4715 15.4121C14.3341 15.5081 14.1868 15.5643 14.03 15.5742C13.8734 15.5841 13.7172 15.548 13.5633 15.4707L11.9988 14.6787L10.4363 15.4512C10.282 15.528 10.1256 15.5632 9.96853 15.5518C9.81296 15.5403 9.66644 15.4851 9.53005 15.3896L8.06911 14.4346L5.38552 19.9004ZM10.0349 11H13.9226C14.0379 11 14.1472 11.0318 14.2498 11.0957C14.3524 11.1597 14.4296 11.2431 14.4802 11.3457L15.4998 13.3984L13.9636 14.4268L12.3543 13.6191C12.2738 13.5762 12.1854 13.5488 12.0896 13.5381L11.991 13.5332C11.8563 13.5332 11.7347 13.5618 11.6267 13.6191L10.0359 14.4268L8.48903 13.3867L9.49685 11.3457C9.54748 11.2432 9.6207 11.1597 9.71657 11.0957C9.81322 11.0317 9.91962 11 10.0349 11ZM10.0349 11.0996C9.96327 11.0996 9.89655 11.1147 9.83376 11.1445L9.77224 11.1797C9.69093 11.234 9.62945 11.304 9.58669 11.3906L8.61696 13.3525L10.0427 14.3105L11.5799 13.5303C11.7037 13.4645 11.8417 13.4326 11.991 13.4326C12.1391 13.4326 12.2756 13.4645 12.3982 13.5293L13.9558 14.3105L15.3709 13.3623L14.3904 11.3906C14.3484 11.3056 14.2848 11.2354 14.197 11.1807C14.1095 11.1261 14.0183 11.0996 13.9226 11.0996H10.0349ZM13.8845 9.90039C14.2098 9.90039 14.5086 9.9863 14.7771 10.1582C14.9774 10.2861 15.1461 10.4459 15.282 10.6377L15.407 10.8408L15.408 10.8428L15.3191 10.8877C15.2106 10.6857 15.0714 10.5143 14.9021 10.373L14.7234 10.2422C14.4714 10.0809 14.1912 10 13.8845 10V9.90039ZM16.4734 4.5C16.4734 4.46672 16.4768 4.43444 16.4851 4.40332L16.5232 4.31348L16.9002 3.58984C16.97 3.44929 16.9644 3.31634 16.8845 3.19043C16.8039 3.06376 16.691 3 16.5457 3V2.90039C16.704 2.90039 16.8345 2.96284 16.9304 3.08203L16.9695 3.13672L17.0027 3.19629C17.0693 3.33665 17.063 3.48612 16.989 3.63477V3.63672L16.6121 4.35938L16.6101 4.36328C16.5855 4.40613 16.573 4.45094 16.573 4.5C16.573 4.52445 16.5758 4.54785 16.5818 4.57031L16.6092 4.63574L16.6121 4.63965L16.989 5.36426V5.36523C17.0745 5.53543 17.0704 5.70669 16.9695 5.86426C16.8712 6.01769 16.727 6.09872 16.5467 6.09961H12.6004V9.90039H13.8845V10H12.4998V6H16.5457C16.691 5.99933 16.8039 5.93557 16.8845 5.80957C16.9451 5.715 16.964 5.6165 16.9392 5.51367L16.9002 5.41016L16.5232 4.68555C16.5066 4.65698 16.4934 4.62757 16.4851 4.59668L16.4734 4.5ZM11.4002 3.80762C11.4003 3.55136 11.4856 3.33257 11.659 3.15918C11.8324 2.98569 12.0519 2.90039 12.3084 2.90039V3L12.1414 3.01465C11.9821 3.0434 11.8452 3.11548 11.7302 3.23047L11.6765 3.28906C11.559 3.43182 11.4998 3.6046 11.4998 3.80762V10H10.034V9.90039H11.4002V3.80762ZM16.5457 2.90039V3H12.3084V2.90039H16.5457Z" fill="currentColor"/>
</svg>
