<svg width="24" height="24" viewBox="0 0 24 24" fill="none" xmlns="http://www.w3.org/2000/svg">
<path d="M15.06 9.8302C15.6238 9.64254 16.2332 9.64254 16.797 9.8302C17.165 9.9532 17.469 10.1682 17.764 10.4262C18.046 10.6742 18.366 11.0052 18.749 11.4012C19.2063 11.8765 19.6643 12.3512 20.123 12.8252C20.571 13.2872 20.751 13.7752 20.749 14.4272C20.743 16.0862 20.708 17.2242 20.232 18.1572C19.7764 19.0507 19.0497 19.777 18.156 20.2322C16.811 20.9182 15.091 20.7502 13.633 20.7502H10.367C9.27499 20.7502 8.40899 20.7502 7.71199 20.6932C6.99799 20.6352 6.39499 20.5132 5.84399 20.2332C4.95013 19.7778 4.22341 19.0511 3.76799 18.1572C3.47299 17.5782 3.35799 16.9482 3.29799 16.1812C3.20999 15.0212 4.19399 14.0822 4.95099 13.3192C5.25799 13.0092 5.58199 12.7492 5.98399 12.6012C6.59391 12.3782 7.26308 12.3782 7.87299 12.6012C8.27499 12.7492 8.59899 13.0092 8.90599 13.3192C9.20399 13.6192 9.53799 14.0192 9.94199 14.5042C9.97699 14.5472 10.032 14.5872 10.083 14.5342L13.108 11.4012C13.492 11.0052 13.811 10.6742 14.093 10.4262C14.388 10.1682 14.693 9.9532 15.06 9.8302ZM15.083 11.5532C14.853 11.7552 14.576 12.0412 14.166 12.4662L11.162 15.5762C11.0079 15.7359 10.8218 15.8614 10.616 15.9444C10.4101 16.0274 10.1891 16.0661 9.96729 16.058C9.74549 16.0499 9.52788 15.9951 9.32865 15.8973C9.12942 15.7995 8.95304 15.6607 8.81099 15.4902C8.37999 14.9742 8.08699 14.6232 7.84099 14.3762C7.60099 14.1332 7.46099 14.0482 7.35799 14.0102C7.08065 13.9087 6.77633 13.9087 6.49899 14.0102C6.39599 14.0482 6.25699 14.1332 6.01599 14.3762C5.64599 14.7482 5.31899 15.1632 4.98399 15.5662C4.82299 15.7592 4.77899 15.8612 4.79699 16.1062C4.84699 16.7622 4.94399 17.1612 5.10399 17.4762C5.41555 18.0876 5.91262 18.5846 6.52399 18.8962C6.82899 19.0512 7.21399 19.1472 7.83399 19.1982C8.46399 19.2492 9.26799 19.2502 10.4 19.2502H13.6C14.792 19.2502 16.365 19.4622 17.476 18.8962C18.0874 18.5846 18.5844 18.0876 18.896 17.4762C19.178 16.9212 19.242 16.1732 19.249 14.4222C19.25 14.1482 19.208 14.0362 19.011 13.8332L17.691 12.4662C17.281 12.0412 17.005 11.7562 16.774 11.5532C16.259 11.1012 15.62 11.0812 15.083 11.5532Z" fill="currentColor"/>
<path d="M10.367 3.25H13.633C14.725 3.25 15.591 3.25 16.288 3.307C17.002 3.365 17.605 3.487 18.157 3.767C19.0506 4.22284 19.777 4.94992 20.232 5.844C20.513 6.394 20.635 6.998 20.693 7.712C20.75 8.409 20.75 9.275 20.75 10.367V13.633C20.75 14.725 20.75 15.591 20.693 16.288C20.635 17.002 20.513 17.605 20.233 18.157C19.7772 19.0506 19.0501 19.777 18.156 20.232C17.606 20.513 17.002 20.635 16.288 20.693C15.591 20.75 14.725 20.75 13.633 20.75H10.367C9.275 20.75 8.409 20.75 7.712 20.693C6.998 20.635 6.395 20.513 5.844 20.233C4.95014 19.7776 4.22341 19.0509 3.768 18.157C3.487 17.605 3.365 17.002 3.307 16.288C3.25 15.591 3.25 14.725 3.25 13.633V10.367C3.25 9.275 3.25 8.409 3.307 7.712C3.365 6.998 3.487 6.395 3.767 5.844C4.22267 4.94999 4.94977 4.22324 5.844 3.768C6.394 3.487 6.998 3.365 7.712 3.307C8.409 3.25 9.275 3.25 10.367 3.25ZM7.834 4.802C7.214 4.852 6.829 4.949 6.524 5.104C5.91263 5.41556 5.41556 5.91263 5.104 6.524C4.949 6.829 4.853 7.214 4.802 7.834C4.751 8.464 4.75 9.268 4.75 10.4V13.6C4.75 14.733 4.75 15.537 4.802 16.166C4.852 16.786 4.949 17.171 5.104 17.476C5.41556 18.0874 5.91263 18.5844 6.524 18.896C6.829 19.051 7.214 19.147 7.834 19.198C8.464 19.249 9.268 19.25 10.4 19.25H13.6C14.733 19.25 15.537 19.25 16.166 19.198C16.786 19.148 17.171 19.051 17.476 18.896C18.0874 18.5844 18.5844 18.0874 18.896 17.476C19.051 17.171 19.147 16.786 19.198 16.166C19.249 15.536 19.25 14.732 19.25 13.6V10.4C19.25 9.268 19.25 8.463 19.198 7.834C19.148 7.214 19.051 6.829 18.896 6.524C18.5844 5.91263 18.0874 5.41556 17.476 5.104C17.171 4.949 16.786 4.853 16.166 4.802C15.536 4.751 14.732 4.75 13.6 4.75H10.4C9.268 4.75 8.463 4.75 7.834 4.802Z" fill="currentColor"/>
<path d="M10 7.75C9.66848 7.75 9.35054 7.8817 9.11612 8.11612C8.8817 8.35054 8.75 8.66848 8.75 9C8.75 9.33152 8.8817 9.64946 9.11612 9.88388C9.35054 10.1183 9.66848 10.25 10 10.25C10.3315 10.25 10.6495 10.1183 10.8839 9.88388C11.1183 9.64946 11.25 9.33152 11.25 9C11.25 8.66848 11.1183 8.35054 10.8839 8.11612C10.6495 7.8817 10.3315 7.75 10 7.75ZM7.25 9C7.25 8.27065 7.53973 7.57118 8.05546 7.05546C8.57118 6.53973 9.27065 6.25 10 6.25C10.7293 6.25 11.4288 6.53973 11.9445 7.05546C12.4603 7.57118 12.75 8.27065 12.75 9C12.75 9.72935 12.4603 10.4288 11.9445 10.9445C11.4288 11.4603 10.7293 11.75 10 11.75C9.27065 11.75 8.57118 11.4603 8.05546 10.9445C7.53973 10.4288 7.25 9.72935 7.25 9Z" fill="currentColor"/>
</svg>
