<svg width="18" height="20" viewBox="0 0 18 20" fill="none" xmlns="http://www.w3.org/2000/svg">
<path fill-rule="evenodd" clip-rule="evenodd" d="M9 3.9072C5.131 3.9072 2 7.0332 2 10.8822C2.0005 12.1282 2.335 13.3513 2.96868 14.4241C3.60235 15.4969 4.51203 16.3803 5.603 16.9822C6.04433 17.2275 6.511 17.4232 7.003 17.5692C7.12894 17.6065 7.2463 17.6682 7.34838 17.7509C7.45045 17.8335 7.53525 17.9355 7.59793 18.0509C7.66061 18.1663 7.69994 18.293 7.71368 18.4236C7.72742 18.5542 7.7153 18.6863 7.678 18.8122C7.64071 18.9381 7.57897 19.0555 7.49632 19.1576C7.41367 19.2597 7.31172 19.3445 7.1963 19.4071C7.08087 19.4698 6.95424 19.5091 6.82361 19.5229C6.69299 19.5366 6.56094 19.5245 6.435 19.4872C5.80906 19.3016 5.20517 19.0484 4.634 18.7322C3.23057 17.9572 2.06047 16.8203 1.24549 15.4397C0.43051 14.0592 0.000426908 12.4854 0 10.8822C0 5.9222 4.032 1.9082 9 1.9082C10.24 1.9082 11.425 2.1582 12.502 2.6132C12.7464 2.71624 12.9399 2.91214 13.0398 3.15781C13.1398 3.40349 13.138 3.67881 13.035 3.9232C12.932 4.1676 12.7361 4.36106 12.4904 4.46101C12.2447 4.56097 11.9694 4.55924 11.725 4.4562C10.8625 4.09288 9.9359 3.9062 9 3.9072ZM8.4 18.9192C8.38582 18.6546 8.47729 18.3951 8.65429 18.1978C8.8313 18.0006 9.07937 17.8817 9.344 17.8672C10.2613 17.8186 11.16 17.5899 11.989 17.1942C12.2273 17.0877 12.4978 17.0786 12.7427 17.1688C12.9876 17.259 13.1875 17.4414 13.2998 17.6771C13.412 17.9127 13.4277 18.1828 13.3435 18.4299C13.2593 18.6769 13.0818 18.8812 12.849 18.9992C11.7843 19.5074 10.6301 19.8013 9.452 19.8642C9.18719 19.8784 8.92759 19.7868 8.7303 19.6096C8.53302 19.4323 8.41421 19.184 8.4 18.9192ZM15.792 6.5442C16.0319 6.43147 16.3068 6.41859 16.5561 6.50841C16.8055 6.59823 17.0091 6.78339 17.122 7.0232C17.6254 8.08989 17.9142 9.24512 17.972 10.4232C17.9853 10.6882 17.8927 10.9475 17.7148 11.1442C17.5368 11.341 17.288 11.4589 17.023 11.4722C16.758 11.4855 16.4987 11.3929 16.302 11.215C16.1052 11.037 15.9873 10.7882 15.974 10.5232C15.9299 9.60578 15.7056 8.70602 15.314 7.8752C15.258 7.75642 15.2259 7.62777 15.2196 7.4966C15.2133 7.36543 15.2329 7.2343 15.2773 7.1107C15.3217 6.98711 15.39 6.87347 15.4783 6.77627C15.5666 6.67907 15.6732 6.60021 15.792 6.5442ZM14.248 16.9762C14.051 16.7987 13.9325 16.5503 13.9186 16.2855C13.9048 16.0207 13.9966 15.7613 14.174 15.5642C14.788 14.8805 15.2635 14.0841 15.574 13.2192C15.618 13.0952 15.686 12.9811 15.7741 12.8834C15.8623 12.7857 15.9689 12.7064 16.0877 12.65C16.2066 12.5936 16.3354 12.5612 16.4668 12.5547C16.5982 12.5481 16.7296 12.5676 16.8535 12.6119C16.9774 12.6563 17.0913 12.7246 17.1887 12.813C17.2861 12.9015 17.3651 13.0083 17.4212 13.1273C17.4772 13.2463 17.5093 13.3753 17.5154 13.5067C17.5216 13.6381 17.5017 13.7695 17.457 13.8932C17.0586 15.0032 16.4483 16.0251 15.66 16.9022C15.4825 17.0992 15.2341 17.2177 14.9693 17.2316C14.7045 17.2454 14.4451 17.1536 14.248 16.9762Z" fill="#878787"/>
<path fill-rule="evenodd" clip-rule="evenodd" d="M10.806 0.0902147C10.9067 0.0399126 11.0165 0.00996905 11.1288 0.00209619C11.2412 -0.00577667 11.354 0.0085757 11.4608 0.0443325C11.5676 0.0800893 11.6663 0.136549 11.7513 0.210484C11.8362 0.284418 11.9058 0.374376 11.956 0.475215L13.288 3.15821C13.555 3.69521 13.334 4.34822 12.795 4.61421L10.104 5.94322C10.0026 5.99793 9.89127 6.03166 9.77659 6.04238C9.6619 6.0531 9.54624 6.04059 9.4365 6.00559C9.32676 5.9706 9.2252 5.91385 9.13789 5.83872C9.05057 5.7636 8.9793 5.67164 8.92833 5.56835C8.87736 5.46506 8.84773 5.35255 8.84121 5.23755C8.8347 5.12256 8.85144 5.00742 8.89042 4.89904C8.92941 4.79065 8.98984 4.69124 9.06811 4.60673C9.14638 4.52223 9.24089 4.45437 9.34597 4.40722L11.47 3.35721L10.417 1.23921C10.3669 1.13831 10.3373 1.02853 10.3297 0.916147C10.3221 0.803769 10.3368 0.690999 10.3728 0.584286C10.4088 0.477572 10.4656 0.379009 10.5397 0.294232C10.6139 0.209455 10.705 0.140128 10.806 0.0902147Z" fill="#878787"/>
</svg>
