<svg width="24" height="24" viewBox="0 0 24 24" fill="none" xmlns="http://www.w3.org/2000/svg">
<path d="M7.5 4.5C7.5 6.15685 6.15685 7.5 4.5 7.5C2.84315 7.5 1.5 6.15685 1.5 4.5C1.5 2.84315 2.84315 1.5 4.5 1.5C6.15685 1.5 7.5 2.84315 7.5 4.5ZM3 4.5C3 5.32843 3.67157 6 4.5 6C5.32843 6 6 5.32843 6 4.5C6 3.67157 5.32843 3 4.5 3C3.67157 3 3 3.67157 3 4.5ZM22.5 19.5C22.5 21.1569 21.1569 22.5 19.5 22.5C17.8431 22.5 16.5 21.1569 16.5 19.5C16.5 17.8431 17.8431 16.5 19.5 16.5C21.1569 16.5 22.5 17.8431 22.5 19.5ZM18 19.5C18 20.3284 18.6716 21 19.5 21C20.3284 21 21 20.3284 21 19.5C21 18.6716 20.3284 18 19.5 18C18.6716 18 18 18.6716 18 19.5ZM15 19.5C15 19.9142 14.6642 20.25 14.25 20.25H6C4.80653 20.25 3.66193 19.7759 2.81802 18.932C1.97411 18.0881 1.5 16.9435 1.5 15.75C1.5 14.5565 1.97411 13.4119 2.81802 12.568C3.48387 11.9022 4.3369 11.4665 5.25343 11.3123C5.66191 11.2436 6 11.5858 6 12C6 12.4142 5.6591 12.7408 5.25777 12.8433C4.74026 12.9754 4.26276 13.2446 3.87868 13.6287C3.31607 14.1913 3 14.9544 3 15.75C3 16.5456 3.31607 17.3087 3.87868 17.8713C4.44129 18.4339 5.20435 18.75 6 18.75H14.25C14.6642 18.75 15 19.0858 15 19.5ZM18.7466 12.6877C18.3381 12.7564 18 12.4142 18 12C18 11.5858 18.3409 11.2592 18.7422 11.1567C19.2597 11.0246 19.7372 10.7554 20.1213 10.3713C20.6839 9.80871 21 9.04565 21 8.25C21 7.45435 20.6839 6.69129 20.1213 6.12868C19.5587 5.56607 18.7956 5.25 18 5.25H9.75C9.33579 5.25 9 4.91421 9 4.5C9 4.08579 9.33579 3.75 9.75 3.75H18C19.1935 3.75 20.3381 4.22411 21.182 5.06802C22.0259 5.91193 22.5 7.05653 22.5 8.25C22.5 9.44347 22.0259 10.5881 21.182 11.432C20.5161 12.0978 19.6631 12.5335 18.7466 12.6877Z" fill="currentColor"/>
<path d="M14.25 8.25H9.75L7.5 11.25L12 15.75L16.5 11.25L14.25 8.25Z" fill="currentColor"/>
</svg>
