<svg width="24" height="24" viewBox="0 0 24 24" fill="none" xmlns="http://www.w3.org/2000/svg">
<path d="M20.3848 5.71094C20.3848 5.6318 20.3528 5.55596 20.2969 5.5C20.2409 5.44404 20.1651 5.41211 20.0859 5.41211H3.91504C3.8359 5.41211 3.76006 5.44404 3.7041 5.5C3.64814 5.55596 3.61621 5.6318 3.61621 5.71094V18.2881C3.61621 18.3672 3.6482 18.4431 3.7041 18.499C3.76006 18.555 3.8359 18.5869 3.91504 18.5869H20.0859C20.1651 18.5869 20.2409 18.555 20.2969 18.499C20.3528 18.4431 20.3848 18.3672 20.3848 18.2881V5.71094ZM21.584 18.2881C21.584 18.6854 21.4265 19.0667 21.1455 19.3477C20.8645 19.6287 20.4833 19.7871 20.0859 19.7871H3.91504C3.51764 19.7871 3.13647 19.6287 2.85547 19.3477C2.57453 19.0667 2.41699 18.6854 2.41699 18.2881V5.71094C2.41699 5.31354 2.57447 4.93237 2.85547 4.65137C3.13647 4.37037 3.51764 4.21289 3.91504 4.21289H20.0859C20.4833 4.21289 20.8645 4.37036 21.1455 4.65137C21.4265 4.93237 21.584 5.31354 21.584 5.71094V18.2881Z" fill="currentColor"/>
<path d="M2.41699 10.2031V8.40625C2.41699 8.07488 2.68523 7.80566 3.0166 7.80566C3.34797 7.80566 3.61621 8.07488 3.61621 8.40625V8.7041H5.71191C5.82078 8.70413 5.92175 8.73542 6.00977 8.78613V5.41211H5.2627C4.93132 5.41211 4.66211 5.14387 4.66211 4.8125C4.66211 4.48113 4.93132 4.21289 5.2627 4.21289H7.95801C8.28926 4.21304 8.55762 4.48122 8.55762 4.8125C8.55762 5.14378 8.28926 5.41196 7.95801 5.41211H7.20996V18.5869H7.95801C8.28919 18.5871 8.55751 18.8553 8.55762 19.1865C8.55762 19.5178 8.28926 19.787 7.95801 19.7871H5.2627C4.93132 19.7871 4.66211 19.5179 4.66211 19.1865C4.66221 18.8552 4.93139 18.5869 5.2627 18.5869H6.00977V15.2119C5.92164 15.2628 5.82099 15.2949 5.71191 15.2949H3.61621V15.5928C3.61621 15.9241 3.34797 16.1934 3.0166 16.1934C2.68523 16.1934 2.41699 15.9241 2.41699 15.5928V13.7969C2.41699 13.4655 2.68523 13.1963 3.0166 13.1963C3.34797 13.1963 3.61621 13.4655 3.61621 13.7969V14.0947H5.71191C5.82083 14.0948 5.92173 14.126 6.00977 14.1768V9.82129C5.92161 9.87223 5.82104 9.90427 5.71191 9.9043H3.61621V10.2031C3.61605 10.5344 3.34787 10.8027 3.0166 10.8027C2.68533 10.8027 2.41715 10.5344 2.41699 10.2031ZM20.3848 10.2031V9.9043H18.2891C18.1799 9.90427 18.0794 9.87223 17.9912 9.82129V14.1768C18.0793 14.126 18.1801 14.0948 18.2891 14.0947H20.3848V13.7969C20.3848 13.4655 20.653 13.1963 20.9844 13.1963C21.3157 13.1963 21.584 13.4655 21.584 13.7969V15.5928C21.584 15.9241 21.3157 16.1934 20.9844 16.1934C20.653 16.1934 20.3848 15.9241 20.3848 15.5928V15.2949H18.2891C18.18 15.2949 18.0793 15.2628 17.9912 15.2119V18.5869H18.7383C19.0696 18.5869 19.3388 18.8552 19.3389 19.1865C19.3389 19.5179 19.0697 19.7871 18.7383 19.7871H16.043C15.7117 19.787 15.4434 19.5178 15.4434 19.1865C15.4435 18.8553 15.7118 18.5871 16.043 18.5869H16.791V5.41211H16.043C15.7117 5.41196 15.4434 5.14378 15.4434 4.8125C15.4434 4.48122 15.7117 4.21304 16.043 4.21289H18.7383C19.0697 4.21289 19.3389 4.48113 19.3389 4.8125C19.3389 5.14387 19.0697 5.41211 18.7383 5.41211H17.9912V8.78613C18.0792 8.73542 18.1802 8.70413 18.2891 8.7041H20.3848V8.40625C20.3848 8.07488 20.653 7.80566 20.9844 7.80566C21.3157 7.80566 21.584 8.07488 21.584 8.40625V10.2031C21.5838 10.5344 21.3156 10.8027 20.9844 10.8027C20.6531 10.8027 20.3849 10.5344 20.3848 10.2031Z" fill="currentColor"/>
<path d="M10.3618 9.22968C10.5526 9.12394 10.7862 9.1297 10.9712 9.2453L14.564 11.4914C14.7394 11.601 14.8462 11.7933 14.8462 12.0002C14.8461 12.207 14.7394 12.3994 14.564 12.509L10.9712 14.7551C10.7862 14.8707 10.5526 14.8764 10.3618 14.7707C10.1712 14.665 10.0533 14.4642 10.0532 14.2463V9.75409C10.0532 9.53608 10.1712 9.33546 10.3618 9.22968ZM11.2524 13.1633L13.1138 12.0002L11.2524 10.8361V13.1633Z" fill="currentColor"/>
</svg>
